<?xml version="1.0" encoding="utf-8"?>
<!-- Generator: Adobe Illustrator 16.0.0, SVG Export Plug-In . SVG Version: 6.00 Build 0)  -->
<!DOCTYPE svg PUBLIC "-//W3C//DTD SVG 1.1//EN" "http://www.w3.org/Graphics/SVG/1.1/DTD/svg11.dtd">
<svg version="1.1" xmlns="http://www.w3.org/2000/svg" xmlns:xlink="http://www.w3.org/1999/xlink" x="0px" y="0px" width="960px"
	 height="560px" viewBox="0 0 960 560" enable-background="new 0 0 960 560" xml:space="preserve">
<g id="Layer_1">
	<path id="path26695" fill="#111111" d="M508.202,312.426c1.262,1.205,2.296,2.202,2.409,2.304
		c0.244,0.233,5.423,5.374,11.633,0.595c-0.132-0.128-9.093-8.995-16.864-16.59C506.388,303.229,507.333,307.797,508.202,312.426
		 M488.034,323.283c0,1.623,1.316,2.94,2.945,2.94c1.619,0,2.937-1.317,2.937-2.94v-7.199c-1.705-1.393-3.733-3.09-5.882-4.971
		V323.283z M500.208,308.381c-0.813,0-1.471-0.855-1.471-1.92c0-0.297,0.053-0.58,0.146-0.832c0.24,0.494,0.742,0.832,1.324,0.832
		c0.588,0,1.092-0.342,1.332-0.832c0.095,0.25,0.15,0.535,0.15,0.832C501.69,307.525,501.028,308.381,500.208,308.381
		 M495.252,260.715c-0.819,0-1.479-0.858-1.479-1.919c0-0.301,0.053-0.58,0.146-0.832c0.242,0.493,0.742,0.832,1.333,0.832
		c0.583,0,1.087-0.342,1.325-0.835c0.102,0.252,0.15,0.535,0.15,0.835C496.728,259.857,496.065,260.715,495.252,260.715
		 M495.252,287.948c-0.819,0-1.479-0.854-1.479-1.911c0-0.302,0.053-0.588,0.146-0.836c0.242,0.489,0.742,0.828,1.333,0.828
		c0.583,0,1.087-0.339,1.325-0.832c0.102,0.248,0.15,0.538,0.15,0.84C496.728,287.094,496.065,287.948,495.252,287.948
		 M495.248,301.568c-0.82,0-1.476-0.854-1.476-1.916c0-0.293,0.049-0.582,0.146-0.831c0.238,0.489,0.738,0.828,1.329,0.828
		c0.579,0,1.091-0.339,1.324-0.832c0.099,0.253,0.151,0.534,0.151,0.835C496.724,300.715,496.062,301.568,495.248,301.568
		 M492.587,308.381c-0.816,0-1.475-0.855-1.475-1.92c0-0.297,0.049-0.58,0.146-0.832c0.236,0.494,0.741,0.832,1.328,0.832
		c0.584,0,1.092-0.342,1.332-0.832c0.095,0.25,0.148,0.535,0.148,0.832C494.067,307.525,493.404,308.381,492.587,308.381
		 M489.956,292.848c0-0.301,0.061-0.586,0.146-0.838c0.242,0.492,0.75,0.831,1.333,0.831c0.588,0,1.091-0.342,1.333-0.835
		c0.094,0.252,0.146,0.541,0.146,0.842c0,1.059-0.666,1.912-1.479,1.912S489.956,293.906,489.956,292.848 M487.624,274.332
		c-0.813,0-1.473-0.854-1.473-1.916c0-0.301,0.053-0.583,0.147-0.832c0.233,0.493,0.745,0.832,1.325,0.832
		c0.59,0,1.091-0.342,1.331-0.839c0.095,0.255,0.147,0.538,0.147,0.839C489.103,273.478,488.44,274.332,487.624,274.332
		 M487.624,287.948c-0.813,0-1.477-0.854-1.477-1.911c0-0.302,0.057-0.588,0.146-0.836c0.238,0.489,0.75,0.828,1.33,0.828
		c0.586,0,1.091-0.339,1.331-0.832c0.095,0.248,0.147,0.538,0.147,0.84C489.103,287.094,488.44,287.948,487.624,287.948
		 M487.619,301.568c-0.813,0-1.472-0.854-1.472-1.916c0-0.293,0.053-0.582,0.146-0.831c0.234,0.489,0.742,0.828,1.325,0.828
		c0.591,0,1.092-0.339,1.333-0.832c0.094,0.253,0.146,0.534,0.146,0.835C489.099,300.715,488.437,301.568,487.619,301.568
		 M483.811,253.903c-0.815,0-1.472-0.858-1.472-1.916c0-0.301,0.049-0.583,0.144-0.835c0.241,0.493,0.745,0.832,1.328,0.832
		c0.587,0,1.091-0.339,1.329-0.835c0.098,0.252,0.15,0.538,0.15,0.839C485.29,253.045,484.628,253.903,483.811,253.903
		 M483.811,267.52c-0.815,0-1.472-0.854-1.472-1.912c0-0.301,0.049-0.583,0.144-0.835c0.241,0.493,0.745,0.832,1.328,0.832
		c0.587,0,1.091-0.339,1.329-0.84c0.098,0.256,0.15,0.542,0.15,0.843C485.29,266.666,484.628,267.52,483.811,267.52
		 M483.811,281.144c-0.815,0-1.472-0.858-1.472-1.919c0-0.297,0.049-0.579,0.144-0.828c0.241,0.489,0.745,0.828,1.328,0.828
		c0.587,0,1.091-0.338,1.329-0.839c0.098,0.252,0.15,0.538,0.15,0.839C485.29,280.286,484.628,281.144,483.811,281.144
		 M483.811,294.76c-0.815,0-1.472-0.854-1.472-1.912c0-0.301,0.049-0.586,0.144-0.838c0.241,0.492,0.745,0.831,1.328,0.831
		c0.587,0,1.091-0.342,1.329-0.835c0.098,0.252,0.15,0.541,0.15,0.842C485.29,293.906,484.628,294.76,483.811,294.76
		 M486.294,257.964c0.238,0.493,0.75,0.832,1.33,0.832c0.586,0,1.091-0.342,1.331-0.835c0.095,0.252,0.147,0.535,0.147,0.835
		c0,1.062-0.662,1.919-1.479,1.919c-0.813,0-1.477-0.858-1.477-1.919C486.147,258.495,486.204,258.216,486.294,257.964
		 M490.103,278.396c0.242,0.489,0.75,0.828,1.333,0.828c0.588,0,1.091-0.338,1.333-0.839c0.094,0.252,0.146,0.538,0.146,0.839
		c0,1.062-0.666,1.919-1.479,1.919s-1.479-0.858-1.479-1.919C489.956,278.927,490.017,278.645,490.103,278.396 M490.103,264.772
		c0.242,0.493,0.75,0.832,1.333,0.832c0.588,0,1.091-0.339,1.333-0.84c0.094,0.256,0.146,0.542,0.146,0.843
		c0,1.058-0.666,1.912-1.479,1.912s-1.479-0.854-1.479-1.912C489.956,265.307,490.017,265.024,490.103,264.772 M479.998,274.332
		c-0.813,0-1.472-0.854-1.472-1.916c0-0.301,0.053-0.583,0.147-0.832c0.24,0.493,0.741,0.832,1.324,0.832
		c0.588,0,1.093-0.342,1.333-0.839c0.094,0.255,0.15,0.538,0.15,0.839C481.481,273.478,480.819,274.332,479.998,274.332
		 M479.998,287.948c-0.813,0-1.472-0.854-1.472-1.911c0-0.302,0.053-0.588,0.147-0.836c0.24,0.489,0.741,0.828,1.324,0.828
		c0.588,0,1.093-0.339,1.333-0.832c0.094,0.248,0.15,0.538,0.15,0.84C481.481,287.094,480.819,287.948,479.998,287.948
		 M476.189,253.903c-0.821,0-1.479-0.858-1.479-1.916c0-0.301,0.052-0.583,0.146-0.835c0.241,0.493,0.745,0.832,1.333,0.832
		c0.583,0,1.091-0.339,1.333-0.835c0.09,0.252,0.143,0.538,0.143,0.839C477.665,253.045,477.002,253.903,476.189,253.903
		 M476.189,267.52c-0.821,0-1.479-0.854-1.479-1.912c0-0.301,0.052-0.583,0.146-0.835c0.241,0.493,0.745,0.832,1.333,0.832
		c0.583,0,1.091-0.339,1.325-0.84c0.098,0.256,0.151,0.542,0.151,0.843C477.665,266.666,477.002,267.52,476.189,267.52
		 M476.189,281.144c-0.821,0-1.479-0.858-1.479-1.919c0-0.297,0.052-0.579,0.146-0.828c0.241,0.489,0.745,0.828,1.333,0.828
		c0.583,0,1.091-0.338,1.325-0.839c0.098,0.252,0.151,0.538,0.151,0.839C477.665,280.286,477.002,281.144,476.189,281.144
		 M476.189,294.76c-0.821,0-1.479-0.854-1.479-1.912c0-0.301,0.052-0.586,0.146-0.838c0.241,0.492,0.745,0.831,1.333,0.831
		c0.583,0,1.091-0.342,1.325-0.835c0.098,0.252,0.151,0.541,0.151,0.842C477.665,293.906,477.002,294.76,476.189,294.76
		 M472.377,260.715c-0.817,0-1.476-0.858-1.476-1.919c0-0.301,0.049-0.58,0.146-0.832c0.238,0.493,0.742,0.832,1.329,0.832
		c0.583,0,1.091-0.342,1.328-0.835c0.098,0.252,0.151,0.535,0.151,0.835C473.856,259.857,473.193,260.715,472.377,260.715
		 M472.377,274.332c-0.817,0-1.476-0.854-1.476-1.916c0-0.301,0.049-0.583,0.146-0.832c0.238,0.493,0.742,0.832,1.329,0.832
		c0.583,0,1.091-0.342,1.328-0.839c0.098,0.255,0.151,0.538,0.151,0.839C473.856,273.478,473.193,274.332,472.377,274.332
		 M472.377,287.948c-0.817,0-1.476-0.854-1.476-1.911c0-0.302,0.049-0.588,0.146-0.836c0.238,0.489,0.742,0.828,1.329,0.828
		c0.583,0,1.091-0.339,1.328-0.832c0.098,0.248,0.151,0.538,0.151,0.84C473.856,287.094,473.193,287.948,472.377,287.948
		 M472.377,301.568c-0.817,0-1.476-0.854-1.476-1.916c0-0.293,0.049-0.582,0.146-0.831c0.238,0.489,0.742,0.828,1.329,0.828
		c0.583,0,1.091-0.339,1.328-0.832c0.098,0.253,0.151,0.534,0.151,0.835C473.856,300.715,473.193,301.568,472.377,301.568
		 M468.564,267.52c-0.816,0-1.475-0.854-1.475-1.912c0-0.301,0.053-0.583,0.147-0.835c0.241,0.493,0.741,0.832,1.328,0.832
		s1.091-0.339,1.329-0.84c0.094,0.256,0.146,0.542,0.146,0.843C470.04,266.666,469.377,267.52,468.564,267.52 M468.564,281.144
		c-0.816,0-1.475-0.858-1.475-1.919c0-0.297,0.053-0.579,0.147-0.828c0.241,0.489,0.741,0.828,1.328,0.828s1.091-0.338,1.329-0.839
		c0.094,0.252,0.146,0.538,0.146,0.839C470.04,280.286,469.377,281.144,468.564,281.144 M468.564,294.76
		c-0.816,0-1.475-0.854-1.475-1.912c0-0.301,0.053-0.586,0.147-0.838c0.241,0.492,0.741,0.831,1.328,0.831s1.091-0.342,1.329-0.835
		c0.094,0.252,0.146,0.541,0.146,0.842C470.04,293.906,469.377,294.76,468.564,294.76 M467.409,308.369
		c-0.813,0-1.472-0.854-1.472-1.912c0-0.301,0.053-0.583,0.147-0.839c0.237,0.493,0.741,0.831,1.324,0.831
		c0.591,0,1.091-0.342,1.332-0.835c0.094,0.256,0.147,0.542,0.147,0.843C468.888,307.515,468.226,308.369,467.409,308.369
		 M464.752,301.568c-0.813,0-1.472-0.854-1.472-1.916c0-0.293,0.053-0.582,0.143-0.831c0.237,0.489,0.745,0.828,1.329,0.828
		c0.583,0,1.091-0.339,1.333-0.832c0.094,0.253,0.146,0.534,0.146,0.835C466.231,300.715,465.565,301.568,464.752,301.568
		 M459.784,308.369c-0.812,0-1.472-0.854-1.472-1.912c0-0.301,0.053-0.583,0.144-0.839c0.241,0.493,0.745,0.831,1.328,0.831
		c0.588,0,1.095-0.342,1.333-0.835c0.094,0.256,0.151,0.542,0.151,0.843C461.268,307.515,460.601,308.369,459.784,308.369
		 M463.424,285.201c0.237,0.489,0.745,0.828,1.329,0.828c0.583,0,1.091-0.339,1.333-0.832c0.094,0.248,0.146,0.538,0.146,0.84
		c0,1.057-0.666,1.911-1.479,1.911s-1.472-0.854-1.472-1.911C463.281,285.735,463.333,285.449,463.424,285.201 M463.281,258.796
		c0-0.301,0.053-0.58,0.143-0.832c0.237,0.493,0.745,0.832,1.329,0.832c0.583,0,1.091-0.342,1.333-0.835
		c0.094,0.252,0.146,0.535,0.146,0.835c0,1.062-0.666,1.919-1.479,1.919S463.281,259.857,463.281,258.796 M478.674,257.964
		c0.24,0.493,0.741,0.832,1.324,0.832c0.588,0,1.093-0.342,1.333-0.835c0.094,0.252,0.15,0.535,0.15,0.835
		c0,1.062-0.662,1.919-1.483,1.919c-0.813,0-1.472-0.858-1.472-1.919C478.526,258.495,478.58,258.216,478.674,257.964
		 M475.719,234.687c-0.696,0-1.268-0.564-1.268-1.272c0-0.696,0.572-1.268,1.268-1.268c0.7,0,1.268,0.572,1.268,1.268
		C476.987,234.122,476.419,234.687,475.719,234.687 M513.817,320.547c-0.768-0.36-6.221-3.176-6.221-3.176
		c-2.24-12.689-4.734-23.318-6.809-31.219c-1.171-4.941-2.48-10.247-3.906-15.757c1.817-1.197,7.128-5.374,7.256-13.443
		c0,0,0.03-0.678,0.03-1.208v-10.398l30.552,23.732c-0.591-2.77-4.23-14.835-16.635-26.63c0,0-10.406-9.898-16.917-9.898
		c-1.095,0-6.003,0.373-6.003,7.264v12.416c0,0,0.038,2.563-2.013,2.563h-0.497c-1.205-4.242-2.473-8.509-3.783-12.736
		c-0.173-0.553-0.35-1.103-0.522-1.656c-1.754-5.676-4.384-7.403-6.194-8.291c-1.258-0.618-3.166-1.095-5.748-1.058
		c-6.752,0.113-8.069,2.717-8.167,3.673c-0.155,1.634,0.316,3.523,0.481,4.253c0.056-0.542,0.045-1.103,0.508-1.686
		c0.455-0.591,1.471-1.035,2.694-1.035h4.93c0,0,0.618,0,0.618,0.504c0,0.501-0.618,0.501-0.618,0.501h-4.501
		c-0.993,0-1.727,0.233-2.171,0.7c-0.061,0.053-0.099,0.113-0.136,0.166c0.054-0.023,0.109-0.045,0.178-0.064
		c0.286-0.071,0.64-0.079,0.963-0.041c0.625,0.094,2.503,0.722,2.443,2.19c-0.011,0.218-0.06,0.482-0.128,0.663
		c-1.798,4.727-3.458,9.382-4.998,13.917h-1.66c-2.043,0-2.006-2.563-2.006-2.563v-12.416c0-6.891-4.907-7.264-6.006-7.264
		c-6.515,0-16.92,9.898-16.92,9.898c-12.401,11.795-16.041,23.861-16.627,26.63l30.552-23.732v10.398c0,0.531,0.03,1.208,0.03,1.208
		c0.136,8.708,6.312,12.886,7.617,13.668c-8.023,27.038-11.08,46.75-11.08,46.75s-5.449,2.815-6.225,3.176
		c-0.042,0.023-1.693,0.73-0.896,2.455c0,0,0.334,0.842,1.189,1c0,0-0.783-1.154,0.121-1.58l4.81-2.024c0,0-2.292,2.966-2.834,3.628
		c-0.034,0.038-1.208,1.4,0.264,2.604c0,0,0.663,0.61,1.501,0.384c0,0-1.212-0.704-0.576-1.475l3.801-4.137
		c0,0-1.087,3.316-1.411,4.105c-0.019,0.05-0.746,1.69,1.008,2.409c0,0,0.817,0.396,1.55-0.068c0,0-1.362-0.323-0.982-1.241
		l1.057-2.355c0,0,0.949-2.263,2.25-2.488l0.716-0.109c2.83-0.425,3.988-0.025,3.988-0.025c1.092,0.372,0.339,1.802,0.339,1.802
		c0.959-0.286,1.235-1.298,1.235-1.298c0.609-1.863-1.28-2.688-1.329-2.71c-0.918-0.425-1.577-0.719-1.577-0.719
		s11.14-8.476,19.593-17.195c8.452,8.72,19.601,17.195,19.601,17.195s-0.662,0.294-1.577,0.719c-0.052,0.022-1.942,0.847-1.336,2.71
		c0,0,0.282,1.012,1.238,1.298c0,0-0.753-1.43,0.339-1.802c0,0,1.163-0.399,3.993,0.025l0.712,0.109
		c1.305,0.226,2.246,2.488,2.246,2.488l1.065,2.355c0.376,0.918-0.982,1.241-0.982,1.241c0.73,0.464,1.546,0.068,1.546,0.068
		c1.758-0.719,1.027-2.359,1.014-2.409c-0.332-0.789-1.416-4.105-1.416-4.105l3.801,4.137c0.633,0.771-0.574,1.475-0.574,1.475
		c0.835,0.227,1.505-0.384,1.505-0.384c1.472-1.204,0.29-2.566,0.26-2.604c-0.542-0.662-2.831-3.628-2.831-3.628l4.803,2.024
		c0.91,0.426,0.123,1.58,0.123,1.58c0.852-0.158,1.19-1,1.19-1C515.519,321.277,513.866,320.57,513.817,320.547 M505.624,257.012
		v-0.038V257.012z M505.65,255.744c0,0-0.022,1.178-0.026,1.238c-0.012,0.757-0.063,1.479-0.154,2.175
		c6.33,5.1,17.576,14.132,18.178,14.584c0.361,0.267,6.074,4.682,12.122-0.712c-0.229-0.18-18.328-14.553-30.119-23.947V255.744z
		 M501.657,268.013c7.033,6.06,20.955,18.009,22.13,18.913c0.553,0.398,5.912,4.346,11.851-0.769
		c-0.227-0.196-18.816-15.502-30.487-25.235C504.446,263.929,503.069,266.27,501.657,268.013 M498.583,271.013
		c0.686,2.679,1.373,5.404,2.055,8.167c7.361,6.71,19.552,17.839,20.041,18.268c0.361,0.32,5.811,5.217,12.1,0.016
		c-0.242-0.207-20.508-18.299-31.952-28.498C500.006,269.853,499.212,270.531,498.583,271.013 M502.24,285.803
		c0.882,3.364,1.724,6.789,2.529,10.26c5.345,5.014,11.147,10.417,11.697,10.907c0.523,0.443,5.507,4.817,12.062,0.429
		c-0.195-0.188-16.119-14.99-27.176-25.291C501.649,283.334,501.948,284.568,502.24,285.803 M466.088,323.283
		c0,1.623,1.314,2.94,2.936,2.94s2.943-1.317,2.943-2.94v-12.17c-2.149,1.881-4.182,3.578-5.879,4.971V323.283z M455.208,296.085
		c0.978-4.212,2.145-8.935,3.507-14.038c-11.061,10.305-27.048,25.163-27.244,25.352c6.556,4.389,11.539,0.015,12.059-0.429
		C444.079,306.479,449.871,301.09,455.208,296.085 M439.322,297.447c0.493-0.433,12.864-11.727,20.213-18.418
		c0.686-2.51,1.427-5.107,2.206-7.775c-0.692-0.508-1.614-1.261-2.571-2.289c-11.444,10.207-31.711,28.291-31.952,28.498
		C433.515,302.664,438.961,297.768,439.322,297.447 M451.75,312.468c0.598-3.181,1.524-7.869,2.841-13.703
		c-7.764,7.583-16.699,16.432-16.838,16.56c6.21,4.779,11.392-0.361,11.633-0.595C449.499,314.632,450.515,313.66,451.75,312.468
		 M480.732,323.047c0,1.634,1.317,2.951,2.946,2.951c1.626,0,2.951-1.317,2.951-2.951v-13.176c-1.953-1.739-3.975-3.609-5.897-5.506
		V323.047z M436.213,286.926c1.178-0.904,15.088-12.85,22.125-18.909c-1.415-1.747-2.789-4.087-3.485-7.094
		c-11.678,9.732-30.262,25.039-30.496,25.235C430.301,291.271,435.66,287.324,436.213,286.926 M424.23,273.029
		c6.052,5.394,11.757,0.979,12.123,0.712c0.602-0.452,11.852-9.481,18.178-14.584c-0.09-0.692-0.143-1.418-0.154-2.175
		c0-0.061-0.03-1.238-0.03-1.238v-6.662C442.563,258.476,424.46,272.849,424.23,273.029 M473.375,323.047
		c0,1.634,1.325,2.951,2.946,2.951c1.626,0,2.948-1.317,2.948-2.951v-18.682c-1.928,1.896-3.94,3.767-5.894,5.506V323.047z"/>
	<path fill="none" stroke="#111111" stroke-width="8.5039" stroke-miterlimit="10" d="M530.275,324.877"/>
	<path fill="none" stroke="#111111" stroke-width="8.5039" stroke-miterlimit="10" d="M479.667,287.667"/>
	<path fill="none" stroke="#111111" stroke-width="8.5039" stroke-miterlimit="10" d="M429.05,324.905"/>
	<g>
		<path d="M479.771,410.741c-11.425,0-22.21-2.762-31.752-7.626l-7.434,12.109c11.717,6.176,25.046,9.69,39.187,9.69
			c11.979,0,23.375-2.526,33.705-7.048l-6.605-12.574C498.527,408.799,489.372,410.741,479.771,410.741z"/>
		<path d="M564.12,340.565c0-8.616-1.295-17.114-3.849-25.259l-13.523,4.24c2.122,6.771,3.198,13.843,3.198,21.019
			c0,7.975-1.343,15.64-3.807,22.788l13.059,5.588C562.378,360.069,564.12,350.519,564.12,340.565z"/>
		<path d="M516.927,400.057l6.613,12.588c13.175-8.029,23.979-19.572,31.12-33.312l-13.076-5.597
			C535.78,384.497,527.254,393.583,516.927,400.057z"/>
		<path d="M409.595,340.565c0-7.122,1.062-14.144,3.154-20.87l-13.533-4.211c-2.517,8.092-3.793,16.53-3.793,25.081
			c0,28.317,14.041,53.401,35.511,68.707l7.428-12.099C420.937,384.393,409.595,363.783,409.595,340.565z"/>
		<path d="M429.908,340.625c0-5.055,0.753-10.039,2.238-14.813l-13.533-4.209c-1.91,6.138-2.877,12.537-2.877,19.021
			c0,20.993,10.167,39.654,25.833,51.325l7.457-12.146C437.398,370.681,429.908,356.516,429.908,340.625z"/>
	</g>
	<g>
		<path d="M479.704,390.421c-7.511,0-14.633-1.681-21.025-4.671l-7.45,12.134c8.582,4.286,18.248,6.711,28.475,6.711
			c8.592,0,16.787-1.714,24.278-4.799l-6.628-12.617C491.865,389.267,485.918,390.421,479.704,390.421z"/>
		<path d="M543.674,340.625c0-6.494-0.972-12.905-2.889-19.056l-13.531,4.217c1.49,4.783,2.246,9.776,2.246,14.839
			c0,5.102-0.788,10.02-2.22,14.657l13.101,5.606C542.517,354.52,543.674,347.705,543.674,340.625z"/>
		<path d="M507.426,381.97l6.612,12.588c9.073-5.797,16.592-13.818,21.788-23.285l-13.116-5.613
			C518.901,372.176,513.673,377.768,507.426,381.97z"/>
	</g>
	<g>
		<g>
			<polygon fill="#111111" points="481.77,348.138 481.77,348.138 484.331,343.966 			"/>
		</g>
	</g>
	<g>
		<path d="M449.116,340.834c0-3.11,0.467-6.176,1.387-9.108l-13.522-4.244c-1.352,4.309-2.038,8.801-2.038,13.353
			c0,14.027,6.522,26.555,16.686,34.728l7.496-12.209C452.981,357.789,449.116,349.755,449.116,340.834z"/>
		<path d="M498.329,364.654l6.667,12.69c5.183-3.63,9.551-8.339,12.8-13.789l-13.195-5.646
			C502.857,360.46,500.746,362.739,498.329,364.654z"/>
		<path d="M524.059,340.834c0-4.521-0.677-8.984-2.01-13.264l-13.531,4.215c0.907,2.914,1.367,5.958,1.367,9.049
			c0,2.297-0.264,4.531-0.749,6.683l13.168,5.636C523.434,349.236,524.059,345.109,524.059,340.834z"/>
		<path d="M479.5,371.218c-3.766,0-7.371-0.693-10.702-1.951l-7.503,12.221c5.563,2.501,11.721,3.904,18.205,3.904
			c5.433,0,10.641-0.981,15.46-2.77l-6.674-12.704C485.504,370.76,482.555,371.218,479.5,371.218z"/>
	</g>
</g>
<g id="Layer_2">
</g>
</svg>
